<mxfile host="app.diagrams.net" modified="2022-07-05T21:56:10.463Z" agent="5.0 (Windows NT 10.0; Win64; x64) AppleWebKit/537.36 (KHTML, like Gecko) Chrome/103.0.0.0 Safari/537.36" etag="9mCHxmM333DVpY2ED0oU" version="20.0.4" type="github">
  <diagram id="C5RBs43oDa-KdzZeNtuy" name="Page-1">
    <mxGraphModel dx="1422" dy="793" grid="1" gridSize="10" guides="1" tooltips="1" connect="1" arrows="1" fold="1" page="1" pageScale="1" pageWidth="827" pageHeight="1169" math="0" shadow="0">
      <root>
        <mxCell id="WIyWlLk6GJQsqaUBKTNV-0" />
        <mxCell id="WIyWlLk6GJQsqaUBKTNV-1" parent="WIyWlLk6GJQsqaUBKTNV-0" />
        <mxCell id="jY0ZF-mh6kjcBk6TCegO-0" value="User" style="swimlane;fontStyle=0;childLayout=stackLayout;horizontal=1;startSize=26;fillColor=none;horizontalStack=0;resizeParent=1;resizeParentMax=0;resizeLast=0;collapsible=1;marginBottom=0;" vertex="1" parent="WIyWlLk6GJQsqaUBKTNV-1">
          <mxGeometry x="180" y="100" width="140" height="220" as="geometry" />
        </mxCell>
        <mxCell id="jY0ZF-mh6kjcBk6TCegO-1" value="- id: Long" style="text;strokeColor=none;fillColor=none;align=left;verticalAlign=top;spacingLeft=4;spacingRight=4;overflow=hidden;rotatable=0;points=[[0,0.5],[1,0.5]];portConstraint=eastwest;" vertex="1" parent="jY0ZF-mh6kjcBk6TCegO-0">
          <mxGeometry y="26" width="140" height="26" as="geometry" />
        </mxCell>
        <mxCell id="jY0ZF-mh6kjcBk6TCegO-2" value="- name: String" style="text;strokeColor=none;fillColor=none;align=left;verticalAlign=top;spacingLeft=4;spacingRight=4;overflow=hidden;rotatable=0;points=[[0,0.5],[1,0.5]];portConstraint=eastwest;" vertex="1" parent="jY0ZF-mh6kjcBk6TCegO-0">
          <mxGeometry y="52" width="140" height="26" as="geometry" />
        </mxCell>
        <mxCell id="jY0ZF-mh6kjcBk6TCegO-3" value="- password: String&#xa;&#xa;- nickname: String&#xa;&#xa;- email: String&#xa;&#xa;-createdDate: Datetime&#xa;&#xa;-modifiedDate: Datetime&#xa;" style="text;strokeColor=none;fillColor=none;align=left;verticalAlign=top;spacingLeft=4;spacingRight=4;overflow=hidden;rotatable=0;points=[[0,0.5],[1,0.5]];portConstraint=eastwest;" vertex="1" parent="jY0ZF-mh6kjcBk6TCegO-0">
          <mxGeometry y="78" width="140" height="142" as="geometry" />
        </mxCell>
        <mxCell id="jY0ZF-mh6kjcBk6TCegO-4" value="Post" style="swimlane;fontStyle=0;childLayout=stackLayout;horizontal=1;startSize=26;fillColor=none;horizontalStack=0;resizeParent=1;resizeParentMax=0;resizeLast=0;collapsible=1;marginBottom=0;" vertex="1" parent="WIyWlLk6GJQsqaUBKTNV-1">
          <mxGeometry x="500" y="100" width="140" height="220" as="geometry" />
        </mxCell>
        <mxCell id="jY0ZF-mh6kjcBk6TCegO-5" value="- id: Long" style="text;strokeColor=none;fillColor=none;align=left;verticalAlign=top;spacingLeft=4;spacingRight=4;overflow=hidden;rotatable=0;points=[[0,0.5],[1,0.5]];portConstraint=eastwest;" vertex="1" parent="jY0ZF-mh6kjcBk6TCegO-4">
          <mxGeometry y="26" width="140" height="26" as="geometry" />
        </mxCell>
        <mxCell id="jY0ZF-mh6kjcBk6TCegO-6" value="-writer: String" style="text;strokeColor=none;fillColor=none;align=left;verticalAlign=top;spacingLeft=4;spacingRight=4;overflow=hidden;rotatable=0;points=[[0,0.5],[1,0.5]];portConstraint=eastwest;" vertex="1" parent="jY0ZF-mh6kjcBk6TCegO-4">
          <mxGeometry y="52" width="140" height="26" as="geometry" />
        </mxCell>
        <mxCell id="jY0ZF-mh6kjcBk6TCegO-7" value="-title: String&#xa;&#xa;-content: String&#xa;&#xa;- view: IntegerÂ &#xa;&#xa;-createdDate: Datetime&#xa;&#xa;-modifiedDate: Datetime&#xa;" style="text;strokeColor=none;fillColor=none;align=left;verticalAlign=top;spacingLeft=4;spacingRight=4;overflow=hidden;rotatable=0;points=[[0,0.5],[1,0.5]];portConstraint=eastwest;" vertex="1" parent="jY0ZF-mh6kjcBk6TCegO-4">
          <mxGeometry y="78" width="140" height="142" as="geometry" />
        </mxCell>
        <mxCell id="jY0ZF-mh6kjcBk6TCegO-8" value="Comment" style="swimlane;fontStyle=0;childLayout=stackLayout;horizontal=1;startSize=26;fillColor=none;horizontalStack=0;resizeParent=1;resizeParentMax=0;resizeLast=0;collapsible=1;marginBottom=0;" vertex="1" parent="WIyWlLk6GJQsqaUBKTNV-1">
          <mxGeometry x="344" y="340" width="140" height="180" as="geometry" />
        </mxCell>
        <mxCell id="jY0ZF-mh6kjcBk6TCegO-9" value="- id: Long" style="text;strokeColor=none;fillColor=none;align=left;verticalAlign=top;spacingLeft=4;spacingRight=4;overflow=hidden;rotatable=0;points=[[0,0.5],[1,0.5]];portConstraint=eastwest;" vertex="1" parent="jY0ZF-mh6kjcBk6TCegO-8">
          <mxGeometry y="26" width="140" height="26" as="geometry" />
        </mxCell>
        <mxCell id="jY0ZF-mh6kjcBk6TCegO-10" value="-comment: String" style="text;strokeColor=none;fillColor=none;align=left;verticalAlign=top;spacingLeft=4;spacingRight=4;overflow=hidden;rotatable=0;points=[[0,0.5],[1,0.5]];portConstraint=eastwest;" vertex="1" parent="jY0ZF-mh6kjcBk6TCegO-8">
          <mxGeometry y="52" width="140" height="26" as="geometry" />
        </mxCell>
        <mxCell id="jY0ZF-mh6kjcBk6TCegO-11" value="-createdDate: Datetime&#xa;&#xa;-modifiedDate: Datetime&#xa;&#xa;- post_id: Long&#xa;- user_id: Long&#xa;" style="text;strokeColor=none;fillColor=none;align=left;verticalAlign=top;spacingLeft=4;spacingRight=4;overflow=hidden;rotatable=0;points=[[0,0.5],[1,0.5]];portConstraint=eastwest;" vertex="1" parent="jY0ZF-mh6kjcBk6TCegO-8">
          <mxGeometry y="78" width="140" height="102" as="geometry" />
        </mxCell>
        <mxCell id="jY0ZF-mh6kjcBk6TCegO-13" value="" style="endArrow=classic;html=1;rounded=0;exitX=0;exitY=0.162;exitDx=0;exitDy=0;exitPerimeter=0;" edge="1" parent="WIyWlLk6GJQsqaUBKTNV-1" source="jY0ZF-mh6kjcBk6TCegO-7">
          <mxGeometry width="50" height="50" relative="1" as="geometry">
            <mxPoint x="560" y="420" as="sourcePoint" />
            <mxPoint x="320" y="200" as="targetPoint" />
          </mxGeometry>
        </mxCell>
        <mxCell id="jY0ZF-mh6kjcBk6TCegO-14" value="" style="endArrow=classic;html=1;rounded=0;exitX=1.014;exitY=0.225;exitDx=0;exitDy=0;exitPerimeter=0;entryX=0.436;entryY=1.021;entryDx=0;entryDy=0;entryPerimeter=0;" edge="1" parent="WIyWlLk6GJQsqaUBKTNV-1" source="jY0ZF-mh6kjcBk6TCegO-11" target="jY0ZF-mh6kjcBk6TCegO-7">
          <mxGeometry width="50" height="50" relative="1" as="geometry">
            <mxPoint x="390" y="430" as="sourcePoint" />
            <mxPoint x="440" y="380" as="targetPoint" />
          </mxGeometry>
        </mxCell>
        <mxCell id="jY0ZF-mh6kjcBk6TCegO-15" value="" style="endArrow=classic;html=1;rounded=0;exitX=-0.014;exitY=0.216;exitDx=0;exitDy=0;exitPerimeter=0;entryX=0.693;entryY=1.021;entryDx=0;entryDy=0;entryPerimeter=0;" edge="1" parent="WIyWlLk6GJQsqaUBKTNV-1" source="jY0ZF-mh6kjcBk6TCegO-11" target="jY0ZF-mh6kjcBk6TCegO-3">
          <mxGeometry width="50" height="50" relative="1" as="geometry">
            <mxPoint x="390" y="430" as="sourcePoint" />
            <mxPoint x="440" y="380" as="targetPoint" />
          </mxGeometry>
        </mxCell>
      </root>
    </mxGraphModel>
  </diagram>
</mxfile>
